# xmcd
#
# Track frame offsets:
#	150
#	14502
#	30529
#	45261
#	58582
#	73864
#	93404
#	107342
#	123688
#	137530
#	156448
#
# Disc length: 2299 seconds
#
# Revision: 0
# Processed by: cddbd v1.4PL0 Copyright (c) Steve Scherf et al.
# Submitted via: audiograbber 1.82.02
#
DISCID=8f08f90b
DTITLE=Aaron Tippin - What This Country Needs
DYEAR=1998
DGENRE=Country
TTITLE0=What This Country Needs
TTITLE1=For You I Will
TTITLE2=Her
TTITLE3=I Didn't Come This Far (Just To Walk Away)
TTITLE4=I'm Leaving
TTITLE5=Nothing Compares to Loving You
TTITLE6=Don't Stop (We're Just Gettin' Started)
TTITLE7=Somewhere Under The Rainbow
TTITLE8=Back When I Knew Everything
TTITLE9=Sweetwater
TTITLE10=You're The Only Reason For Me
EXTD=
EXTT0=
EXTT1=
EXTT2=
EXTT3=
EXTT4=
EXTT5=
EXTT6=
EXTT7=
EXTT8=
EXTT9=
EXTT10=
PLAYORDER=
